<?xml version="1.0" encoding="utf-8"?>
<svg xmlns="http://www.w3.org/2000/svg" width="117" zoomAndPan="magnify" viewBox="0 0 87.75 30.000001" height="40" preserveAspectRatio="xMidYMid meet" version="1.0">
  <defs>
    <g/>
    <clipPath id="23d131963a">
      <path d="M 7.335938 4.402344 L 27.023438 4.402344 L 27.023438 24.707031 L 7.335938 24.707031 Z M 7.335938 4.402344 " clip-rule="nonzero"/>
    </clipPath>
    <clipPath id="e0f20e251c">
      <path d="M 10.238281 4.402344 L 24.121094 4.402344 C 24.890625 4.402344 25.628906 4.707031 26.175781 5.25 C 26.71875 5.796875 27.023438 6.535156 27.023438 7.304688 L 27.023438 21.726562 C 27.023438 22.5 26.71875 23.238281 26.175781 23.78125 C 25.628906 24.324219 24.890625 24.632812 24.121094 24.632812 L 10.238281 24.632812 C 9.46875 24.632812 8.730469 24.324219 8.1875 23.78125 C 7.640625 23.238281 7.335938 22.5 7.335938 21.726562 L 7.335938 7.304688 C 7.335938 6.535156 7.640625 5.796875 8.1875 5.25 C 8.730469 4.707031 9.46875 4.402344 10.238281 4.402344 Z M 10.238281 4.402344 " clip-rule="nonzero"/>
    </clipPath>
    <linearGradient gradientUnits="userSpaceOnUse" x1="480" y1="-760" x2="480" y2="-200" id="gradient-0" gradientTransform="matrix(0.017469, -0.017884, 0.042782, 0.04179, 29.368359, 43.628419)">
      <stop offset="0" style="stop-color: rgb(100% 100% 100%)"/>
      <stop offset="1" style="stop-color: rgb(19, 113, 91);"/>
    </linearGradient>
  </defs>
  <g clip-path="url(#23d131963a)" transform="matrix(1, 0, 0, 1, 0.11874, 0.331773)">
    <g clip-path="url(#e0f20e251c)">
      <path d="M 7.335938 4.402344 L 27.023438 4.402344 L 27.023438 24.628906 L 7.335938 24.628906 Z M 7.335938 4.402344 " fill-opacity="1" fill-rule="nonzero" style="fill: rgb(19, 113, 91);"/>
    </g>
  </g>
  <g fill="#000000" fill-opacity="1">
    <g transform="translate(29.801413, 19.959679)">
      <g>
        <path d="M 3.246094 0.148438 C 2.539062 0.148438 2.003906 -0.0429688 1.632812 -0.421875 C 1.261719 -0.800781 1.078125 -1.378906 1.078125 -2.152344 L 1.078125 -10.953125 L 3.039062 -10.953125 L 3.039062 -2.230469 C 3.039062 -1.753906 3.238281 -1.515625 3.632812 -1.515625 C 3.746094 -1.515625 3.867188 -1.535156 3.996094 -1.574219 L 4.09375 -1.542969 L 4.273438 -0.0351562 C 4.164062 0.0195312 4.019531 0.0664062 3.839844 0.0976562 C 3.660156 0.132812 3.460938 0.148438 3.246094 0.148438 Z M 3.246094 0.148438 "/>
      </g>
    </g>
  </g>
  <g fill="#000000" fill-opacity="1">
    <g transform="translate(34.291665, 19.959679)">
      <g>
        <path d="M 4.542969 0.148438 C 3.777344 0.148438 3.105469 -0.0078125 2.527344 -0.324219 C 1.945312 -0.636719 1.5 -1.097656 1.179688 -1.703125 C 0.859375 -2.3125 0.703125 -3.042969 0.703125 -3.902344 C 0.703125 -4.761719 0.859375 -5.496094 1.179688 -6.105469 C 1.5 -6.714844 1.945312 -7.175781 2.527344 -7.492188 C 3.105469 -7.804688 3.777344 -7.960938 4.542969 -7.960938 C 5.304688 -7.960938 5.976562 -7.804688 6.554688 -7.492188 C 7.136719 -7.175781 7.585938 -6.714844 7.90625 -6.105469 C 8.226562 -5.496094 8.386719 -4.761719 8.386719 -3.902344 C 8.386719 -3.042969 8.226562 -2.3125 7.90625 -1.703125 C 7.585938 -1.097656 7.136719 -0.636719 6.554688 -0.324219 C 5.976562 -0.0078125 5.304688 0.148438 4.542969 0.148438 Z M 4.542969 -1.515625 C 5.753906 -1.515625 6.363281 -2.3125 6.363281 -3.902344 C 6.363281 -4.730469 6.207031 -5.335938 5.894531 -5.71875 C 5.582031 -6.105469 5.132812 -6.296875 4.542969 -6.296875 C 3.328125 -6.296875 2.71875 -5.5 2.71875 -3.902344 C 2.71875 -2.3125 3.328125 -1.515625 4.542969 -1.515625 Z M 4.542969 -1.515625 "/>
      </g>
    </g>
  </g>
  <g fill="#000000" fill-opacity="1">
    <g transform="translate(43.371323, 19.959679)">
      <g>
        <path d="M 1.730469 3.316406 C 1.394531 3.316406 1.089844 3.289062 0.816406 3.238281 C 0.546875 3.1875 0.324219 3.117188 0.15625 3.03125 L 0.46875 1.445312 L 0.59375 1.402344 C 0.714844 1.464844 0.859375 1.515625 1.035156 1.550781 C 1.210938 1.589844 1.386719 1.609375 1.574219 1.609375 C 1.890625 1.609375 2.152344 1.566406 2.363281 1.484375 C 2.574219 1.402344 2.75 1.265625 2.898438 1.074219 C 3.042969 0.882812 3.171875 0.617188 3.289062 0.277344 L 0.171875 -7.8125 L 2.222656 -7.8125 L 4.164062 -2.378906 L 4.335938 -2.378906 L 6.226562 -7.8125 L 8.226562 -7.8125 L 5.085938 0.488281 C 4.835938 1.160156 4.5625 1.699219 4.261719 2.109375 C 3.960938 2.515625 3.605469 2.820312 3.199219 3.019531 C 2.789062 3.214844 2.300781 3.316406 1.730469 3.316406 Z M 1.730469 3.316406 "/>
      </g>
    </g>
  </g>
  <g fill="#000000" fill-opacity="1">
    <g transform="translate(51.756903, 19.959679)">
      <g>
        <path d="M 3.65625 0.148438 C 3.121094 0.148438 2.632812 0.0859375 2.1875 -0.0390625 C 1.746094 -0.164062 1.367188 -0.335938 1.050781 -0.554688 C 0.738281 -0.777344 0.503906 -1.027344 0.355469 -1.3125 L 1.445312 -2.488281 L 1.59375 -2.488281 C 1.855469 -2.136719 2.160156 -1.875 2.515625 -1.699219 C 2.871094 -1.527344 3.253906 -1.4375 3.667969 -1.4375 C 4.050781 -1.4375 4.339844 -1.507812 4.535156 -1.644531 C 4.726562 -1.78125 4.824219 -1.976562 4.824219 -2.230469 C 4.824219 -2.429688 4.753906 -2.597656 4.617188 -2.730469 C 4.476562 -2.867188 4.25 -2.972656 3.9375 -3.046875 L 2.90625 -3.292969 C 2.128906 -3.476562 1.566406 -3.761719 1.207031 -4.140625 C 0.851562 -4.519531 0.671875 -5.003906 0.671875 -5.589844 C 0.671875 -6.074219 0.796875 -6.5 1.046875 -6.859375 C 1.292969 -7.214844 1.640625 -7.492188 2.09375 -7.679688 C 2.542969 -7.867188 3.070312 -7.960938 3.667969 -7.960938 C 4.375 -7.960938 4.957031 -7.863281 5.417969 -7.660156 C 5.882812 -7.457031 6.242188 -7.183594 6.503906 -6.84375 L 5.453125 -5.710938 L 5.3125 -5.710938 C 5.097656 -5.957031 4.851562 -6.136719 4.578125 -6.25 C 4.308594 -6.363281 4.003906 -6.417969 3.667969 -6.417969 C 2.894531 -6.417969 2.507812 -6.175781 2.507812 -5.695312 C 2.507812 -5.492188 2.578125 -5.328125 2.722656 -5.199219 C 2.867188 -5.074219 3.121094 -4.96875 3.484375 -4.886719 L 4.449219 -4.675781 C 5.242188 -4.503906 5.820312 -4.234375 6.1875 -3.859375 C 6.554688 -3.480469 6.738281 -2.976562 6.738281 -2.34375 C 6.738281 -1.847656 6.613281 -1.414062 6.367188 -1.035156 C 6.125 -0.65625 5.769531 -0.363281 5.304688 -0.160156 C 4.84375 0.046875 4.292969 0.148438 3.65625 0.148438 Z M 3.65625 0.148438 "/>
      </g>
    </g>
  </g>
  <g fill="#000000" fill-opacity="1">
    <g transform="translate(58.959726, 19.959679)">
      <g>
        <path d="M 5.390625 -1.863281 L 5.902344 -0.410156 C 5.6875 -0.234375 5.421875 -0.0976562 5.101562 0 C 4.78125 0.0976562 4.414062 0.148438 4.011719 0.148438 C 3.164062 0.148438 2.523438 -0.0820312 2.082031 -0.542969 C 1.644531 -1.003906 1.425781 -1.671875 1.425781 -2.550781 L 1.425781 -6.261719 L 0.234375 -6.261719 L 0.234375 -7.820312 L 1.425781 -7.820312 L 1.425781 -9.34375 L 3.386719 -9.664062 L 3.386719 -7.820312 L 5.605469 -7.820312 L 5.605469 -6.261719 L 3.386719 -6.261719 L 3.386719 -2.691406 C 3.386719 -2.304688 3.464844 -2.023438 3.628906 -1.84375 C 3.789062 -1.667969 4.023438 -1.578125 4.328125 -1.578125 C 4.679688 -1.578125 4.984375 -1.675781 5.242188 -1.863281 Z M 5.390625 -1.863281 "/>
      </g>
    </g>
  </g>
  <g fill="#000000" fill-opacity="1">
    <g transform="translate(65.029362, 19.959679)">
      <g>
        <path d="M 7.722656 -3.464844 L 2.699219 -3.464844 C 2.753906 -2.785156 2.949219 -2.289062 3.28125 -1.980469 C 3.609375 -1.671875 4.0625 -1.515625 4.632812 -1.515625 C 5.082031 -1.515625 5.445312 -1.601562 5.722656 -1.765625 C 6.003906 -1.933594 6.226562 -2.1875 6.398438 -2.527344 L 6.546875 -2.527344 L 7.847656 -1.691406 C 7.59375 -1.144531 7.210938 -0.703125 6.695312 -0.359375 C 6.179688 -0.0195312 5.492188 0.148438 4.632812 0.148438 C 3.824219 0.148438 3.128906 -0.00390625 2.539062 -0.3125 C 1.953125 -0.617188 1.5 -1.074219 1.179688 -1.683594 C 0.859375 -2.289062 0.703125 -3.03125 0.703125 -3.902344 C 0.703125 -4.792969 0.867188 -5.539062 1.203125 -6.148438 C 1.539062 -6.757812 1.992188 -7.214844 2.566406 -7.511719 C 3.136719 -7.8125 3.777344 -7.960938 4.492188 -7.960938 C 5.597656 -7.960938 6.441406 -7.671875 7.03125 -7.085938 C 7.621094 -6.5 7.914062 -5.640625 7.914062 -4.503906 C 7.914062 -4.09375 7.898438 -3.777344 7.871094 -3.550781 Z M 6.035156 -4.730469 C 6.015625 -5.328125 5.878906 -5.761719 5.621094 -6.03125 C 5.363281 -6.304688 4.988281 -6.441406 4.492188 -6.441406 C 3.5 -6.441406 2.917969 -5.871094 2.742188 -4.730469 Z M 6.035156 -4.730469 "/>
      </g>
    </g>
  </g>
  <g fill="#000000" fill-opacity="1">
    <g transform="translate(73.521185, 19.959679)">
      <g>
        <path d="M 1.125 0 L 1.125 -7.8125 L 3.03125 -7.8125 L 3.03125 -6.652344 L 3.179688 -6.625 C 3.371094 -7.058594 3.617188 -7.378906 3.925781 -7.582031 C 4.230469 -7.785156 4.605469 -7.886719 5.042969 -7.886719 C 5.488281 -7.886719 5.824219 -7.808594 6.058594 -7.660156 L 5.722656 -5.964844 L 5.574219 -5.9375 C 5.449219 -5.988281 5.324219 -6.027344 5.207031 -6.050781 C 5.089844 -6.074219 4.945312 -6.085938 4.773438 -6.085938 C 4.226562 -6.085938 3.808594 -5.894531 3.519531 -5.507812 C 3.234375 -5.125 3.089844 -4.503906 3.089844 -3.65625 L 3.089844 0 Z M 1.125 0 "/>
      </g>
    </g>
  </g>
  <g fill="#000000" fill-opacity="1">
    <g transform="translate(79.655244, 19.959679)">
      <g/>
    </g>
  </g>
  <path d="M 22.818 12.458 L 22.818 9.458 L 19.818 9.458 L 19.818 12.458 L 22.818 12.458 Z M 14.818 12.458 L 14.818 9.458 L 11.818 9.458 L 11.818 12.458 L 14.818 12.458 Z M 14.818 20.458 L 14.818 17.458 L 11.818 17.458 L 11.818 20.458 L 14.818 20.458 Z M 16.318 7.958 L 16.318 13.958 L 10.318 13.958 L 10.318 7.958 L 16.318 7.958 Z M 16.318 15.958 L 16.318 21.958 L 10.318 21.958 L 10.318 15.958 L 16.318 15.958 Z M 24.318 7.958 L 24.318 13.958 L 18.318 13.958 L 18.318 7.958 L 24.318 7.958 Z M 18.318 15.958 L 19.818 15.958 L 19.818 17.458 L 18.318 17.458 L 18.318 15.958 Z M 19.818 17.458 L 21.318 17.458 L 21.318 18.958 L 19.818 18.958 L 19.818 17.458 Z M 18.318 18.958 L 19.818 18.958 L 19.818 20.458 L 18.318 20.458 L 18.318 18.958 Z M 19.818 20.458 L 21.318 20.458 L 21.318 21.958 L 19.818 21.958 L 19.818 20.458 Z M 21.318 18.958 L 22.818 18.958 L 22.818 20.458 L 21.318 20.458 L 21.318 18.958 Z M 22.818 20.458 L 24.318 20.458 L 24.318 21.958 L 22.818 21.958 L 22.818 20.458 Z" style="fill: url(&quot;#gradient-0&quot;); stroke-width: 0.025;"/>
</svg>